# xmcd CD database file
#
# Track frame offsets:
#	150
#	1140
#	31255
#	66443
#	101501
#	125193
#	135840
#	176660
#	188655
#	220187
#
# Disc length: 3663 seconds
#
# Revision: 0
# Processed by: cddbd v1.5.2PL0 Copyright (c) Steve Scherf et al.
# Submitted via: CDex 1.70beta2
#
DISCID=840e4d0a
DTITLE=Cannonball Adderley - Why Am I Treated So Bad!
DYEAR=1967
DGENRE=Jazz
TTITLE0=Introduction
TTITLE1=Mini Mama
TTITLE2=I'm on my way
TTITLE3=Why am I treated so bad
TTITLE4=One for Newk
TTITLE5=Yvette
TTITLE6=The other side
TTITLE7=The Scene
TTITLE8=Heads up! Feet down!
TTITLE9=The girl next door
EXTD=YEAR: 1967
EXTT0=
EXTT1=
EXTT2=
EXTT3=
EXTT4=
EXTT5=
EXTT6=
EXTT7=
EXTT8=
EXTT9=
PLAYORDER=
